<svg viewBox="0 0 400 300" xmlns="http://www.w3.org/2000/svg" fill-rule="evenodd" clip-rule="evenodd" stroke-linejoin="round" stroke-miterlimit="1.414"><circle cx="200" cy="137.552" r="60" fill="#ff0084"/><path d="M170 135.097h-30v76.809c0 8.304 6.732 15.036 15.036 15.036h.002A14.962 14.962 0 0 0 170 211.98v-76.883z" fill="#ff0084"/><circle cx="200" cy="137.552" r="32.5" fill="#fff"/><path d="M237 120.552h-44.5a5.496 5.496 0 0 0-5.5 5.5 5.5 5.5 0 0 0 5.5 5.5H237v-11zM213 149.182a5.63 5.63 0 0 0-5.63-5.63H163v11h44.632a5.371 5.371 0 0 0 5.368-5.368v-.002z" fill="#ff0084"/></svg>
