<svg viewBox="0 0 400 300" xmlns="http://www.w3.org/2000/svg" fill-rule="evenodd" clip-rule="evenodd" stroke-linejoin="round" stroke-miterlimit="1.414"><circle cx="200" cy="139.188" r="60" fill="#ff0084"/><path d="M170 136.733h-30v61.043c0 8.304 6.732 15.036 15.036 15.036h.002A14.962 14.962 0 0 0 170 197.85v-61.117z" fill="#ff0084"/><circle cx="200" cy="139.188" r="34" fill="#fff"/><path d="M214.938 150.188a5.997 5.997 0 0 0-6-6h-25.876a6 6 0 0 0-6 6c0 1.591.632 3.117 1.758 4.242a5.996 5.996 0 0 0 4.242 1.758h25.876a5.996 5.996 0 0 0 4.242-1.758 5.996 5.996 0 0 0 1.758-4.242zM222.938 128.188a5.997 5.997 0 0 0-6-6h-25.876a6 6 0 0 0-6 6c0 1.591.632 3.117 1.758 4.242a5.996 5.996 0 0 0 4.242 1.758h25.876a5.996 5.996 0 0 0 4.242-1.758 5.996 5.996 0 0 0 1.758-4.242z" fill="#ff0084"/></svg>
