<svg xmlns="http://www.w3.org/2000/svg" viewBox="0 0 311.28 67.71">
  <defs>
    <style>.cls-1{fill:#333}.cls-2{fill:#c69}</style>
  </defs>
  <title>scssfmt</title>
  <path class="cls-1" d="M157.19 47.2a12.22 12.22 0 0 1-7.19 3.72 18.74 18.74 0 0 1-7 0 1.82 1.82 0 0 0-1.75.66 21.92 21.92 0 0 1-16.42 7.08 23.64 23.64 0 0 1-3.21-.22q-1.61-.22-3.28-.58-5.26-1.17-7.81-4.23a6.86 6.86 0 0 1-2-5.77q.66-5.33 6.64-5.84 3-.29 11.53 1.68l9.63 2.41a1.64 1.64 0 0 0 1.9-.88 13.42 13.42 0 0 0 2-6.28q0-5.25-8.47-9.2-8.17-3.79-8.17-11.17a13.33 13.33 0 0 1 1.53-6A17.57 17.57 0 0 1 132.45 5a21 21 0 0 1 10.22-2.63h1.09l1.09.11q4.82.59 7.23 3.07A6.35 6.35 0 0 1 154 10a3.65 3.65 0 0 1-.29 1.61q-1.09 2.56-3.14 2a1 1 0 0 1-.69-.77l-.4-1.35q-.95-2.26-4.67-3.36a10.9 10.9 0 0 0-2.92-.37q-7.74 0-10.66 5.91a8.2 8.2 0 0 0-.88 3.36q0 3.43 4.67 6.13l7.44 4.16a11.23 11.23 0 0 1 4.82 9.2 23.61 23.61 0 0 1-1.7 8.48 5.47 5.47 0 0 0-.51 1.31c0 .2.19.34.58.44a11.48 11.48 0 0 0 3.5.51 7.52 7.52 0 0 0 3.59-1.26 17.51 17.51 0 0 0 2.26-1.61 9.69 9.69 0 0 0 1.75-1.86q.36-.44.58.22a6 6 0 0 1 .37 2.85 2.91 2.91 0 0 1-.51 1.6zm-23.72 3.21q0-.51-1.68-.88-3.06-.72-6.79-1.53t-8.21-1.61a2.79 2.79 0 0 0-2.12.66 2.36 2.36 0 0 0-.8 1.82 2.7 2.7 0 0 0 1.13 2.2 12 12 0 0 0 8.1 2.63 19.86 19.86 0 0 0 9.2-2.34q1.17-.51 1.17-.95z"/>
  <path class="cls-1" d="M177.11 47.2a12.79 12.79 0 0 1-7.11 3.72q-.88.15-1.86.22t-2.08.07a22.64 22.64 0 0 1-10.66-2.34 10.36 10.36 0 0 1-5.62-9.56 14.25 14.25 0 0 1 .22-2.48q1.24-7.66 6.35-11.9a13.6 13.6 0 0 1 9.27-3.43q7.08.37 7.37 4.45.29 3.21-2 4.38a1.54 1.54 0 0 1-1.31.15.81.81 0 0 1-.84-.44 7.9 7.9 0 0 1-.33-1A3.74 3.74 0 0 0 168 28a1.75 1.75 0 0 0-1.28-.66 6.71 6.71 0 0 0-4.6 1.24q-3.21 2.34-4.09 7.59a14.84 14.84 0 0 0-.29 2.92 7.5 7.5 0 0 0 2.55 5.77q2.85 2.7 8.76 2.34a9.26 9.26 0 0 0 3.58-1.31 20.22 20.22 0 0 0 2.26-1.53 8.84 8.84 0 0 0 1.75-1.82q.36-.44.58.22a6 6 0 0 1 .37 2.85 2.9 2.9 0 0 1-.48 1.59z"/>
  <path class="cls-1" d="M201.85 47.2a12.79 12.79 0 0 1-7.15 3.72 21.7 21.7 0 0 1-4.82.22 9.36 9.36 0 0 1-4.09-.88 1.07 1.07 0 0 0-.87-.07 19 19 0 0 0-1.83.73 26.11 26.11 0 0 1-3.87.44q-5.33.29-8.32-2.77-.44-.36-.73-.07a12.59 12.59 0 0 1-5.55 2.41c-.44 0-.68-.15-.73-.44a5.64 5.64 0 0 1-.51-2.41c0-.49.1-.75.29-.8q3.8-.66 7.44-4.74 1-1.17 2.48-3.1T177 34.8q4.23-6 4.89-8a2.85 2.85 0 0 0-.33-1.42 4.58 4.58 0 0 1-.4-1.86 5.4 5.4 0 0 1 0-.62c0-.22.06-.45.11-.69a4.51 4.51 0 0 1 2.33-3 7 7 0 0 1 3.95-1.21q3.57.15 3.5 2.85a8.61 8.61 0 0 1-.95 2.48q-.51 1-.8 1.64l-.44.91q-.37 1 0 1.31a6.62 6.62 0 0 1 1.39 1.61 27.22 27.22 0 0 1 1.39 2.48 14.76 14.76 0 0 1 1.68 7.37 11.7 11.7 0 0 1-.4 2.23 12.93 12.93 0 0 1-1.06 2.59 13.16 13.16 0 0 1-1.75 2.63q-.51.51.07.91t3.65.25A8.74 8.74 0 0 0 197.4 46a11.79 11.79 0 0 0 4-3.43q.36-.44.58.22a6 6 0 0 1 .37 2.85 2.92 2.92 0 0 1-.5 1.56zm-16.35-9.7a10.72 10.72 0 0 0-.8-4.45q-.22-.51-.58-.37c-.24 0-.44.17-.58.51A52.64 52.64 0 0 1 180.1 38q-2.77 3.5-3.72 4.6a1.61 1.61 0 0 0-.37.73c0 .29.29.54.88.73a3.35 3.35 0 0 1 1.68 2.48q.15.58 1.53.15 3.5-1.17 4.89-5.62a11.34 11.34 0 0 0 .51-3.57z"/>
  <path class="cls-1" d="M226.59 47.2a12.79 12.79 0 0 1-7.15 3.72 21.7 21.7 0 0 1-4.82.22 9.36 9.36 0 0 1-4.09-.88 1.07 1.07 0 0 0-.87-.07 19 19 0 0 0-1.83.73 26.11 26.11 0 0 1-3.87.44q-5.33.29-8.32-2.77-.44-.36-.73-.07a12.59 12.59 0 0 1-5.55 2.41c-.44 0-.68-.15-.73-.44a5.64 5.64 0 0 1-.51-2.41c0-.49.1-.75.29-.8q3.8-.66 7.44-4.74 1-1.17 2.48-3.1t3.36-4.63q4.23-6 4.89-8a2.85 2.85 0 0 0-.33-1.42 4.58 4.58 0 0 1-.4-1.86 5.4 5.4 0 0 1 0-.62c0-.22.06-.45.11-.69a4.51 4.51 0 0 1 2.33-3 7 7 0 0 1 4-1.22q3.57.15 3.5 2.85a8.61 8.61 0 0 1-.95 2.48q-.51 1-.8 1.64l-.44.91q-.37 1 0 1.31a6.62 6.62 0 0 1 1.4 1.62 27.22 27.22 0 0 1 1.39 2.48 14.76 14.76 0 0 1 1.68 7.37 11.7 11.7 0 0 1-.4 2.23 12.93 12.93 0 0 1-1.06 2.59 13.16 13.16 0 0 1-1.75 2.63q-.51.51.07.91t3.65.25a8.74 8.74 0 0 0 3.56-1.27 11.79 11.79 0 0 0 4-3.43q.36-.44.58.22a6 6 0 0 1 .37 2.85 2.92 2.92 0 0 1-.5 1.56zm-16.35-9.7a10.72 10.72 0 0 0-.8-4.45q-.22-.51-.58-.37c-.24 0-.44.17-.58.51a52.64 52.64 0 0 1-3.44 4.81q-2.77 3.5-3.72 4.6a1.61 1.61 0 0 0-.37.73c0 .29.29.54.88.73a3.35 3.35 0 0 1 1.68 2.48q.15.58 1.53.15 3.5-1.17 4.89-5.62a11.34 11.34 0 0 0 .51-3.57z"/>
  <path class="cls-1" d="M249.21 47.2A12.82 12.82 0 0 1 247 49a11.14 11.14 0 0 1-4.89 1.9 15.51 15.51 0 0 1-5.55.15q-.8-.15-.88.51a26.89 26.89 0 0 1-.44 2.66 20.6 20.6 0 0 1-.8 2.74Q230.75 67.71 223 67.71a10.57 10.57 0 0 1-2.55-.29q-3.65-.8-3.65-6.5a28.09 28.09 0 0 1 .44-4.52q.44-2.63 1.24-6.13.29-1.17 1.2-4.38t2.37-8.61a189.55 189.55 0 0 1 6.13-18.46q7.08-17.15 14.67-17.15a9.08 9.08 0 0 1 1.9.22Q250 3.19 250 9.18q0 4.16-2.92 11.75a41.2 41.2 0 0 1-7.3 11.9 37.37 37.37 0 0 1-7.23 7q-.73.51-.73.95t1.09 1.31a5.75 5.75 0 0 1 2 3.14 1.81 1.81 0 0 0 1 1.24 16.5 16.5 0 0 0 5.25.8 7.52 7.52 0 0 0 3.6-1.27 17.54 17.54 0 0 0 2.24-1.61 9.71 9.71 0 0 0 1.75-1.86q.36-.44.58.22a6 6 0 0 1 .36 2.85 2.91 2.91 0 0 1-.48 1.6zM230 49.76a12.87 12.87 0 0 1-2.1-1.76.63.63 0 0 0-.44-.22c-.29 0-.54.32-.73.95q-.29.66-1.68 5.77-1.53 5.62-1.53 6.13 0 1.39 1 1.61 2.12.58 4.74-6.5a14.6 14.6 0 0 0 1.09-5q.03-.74-.35-.98zm7.37-34.59q-1.46 4-3.07 8.54t-3.5 9.78a5 5 0 0 0-.44 1.53c0 .15 0 .22.15.22s.49-.29 1-.87a78.93 78.93 0 0 0 9.63-15.47q3.06-6.35 3.06-9.12 0-2-1.53-2.19-2.43-.31-5.28 7.57z"/>
  <path class="cls-1" d="M295.85 47.2a12.79 12.79 0 0 1-7.15 3.72 24.53 24.53 0 0 1-4.52.44 16.44 16.44 0 0 1-5.47-.8q-4-1.53-4-5 0-2 1.82-7 .8-2.12 1.53-3.83t1.39-3a6.85 6.85 0 0 0 .95-2.63 1 1 0 0 0-1.12-1.1q-1 0-3 2.48-1.31 1.68-2.88 3.94t-3.47 5.18q-2.34 3.58-3.72 6.06a22.77 22.77 0 0 0-1.82 3.87q-.59 1.68-4.16 1.68-4 0-3.43-1.68 1.68-4.45 3.65-9.38t4.09-10.47q.73-2-.66-2.26t-4.16 2.92q-2 2.34-6.35 10.22-3.87 6.93-4.82 9.12-.59 1.46-4.09 1.46t-3.14-1.75q1.75-6.2 3.61-13t3.9-14.2q.51-2.19 3.58-2.19a6 6 0 0 1 2.55.51q1.6.66 1.61 1.75a2 2 0 0 1-.29 1 35.52 35.52 0 0 0-1.75 4.23 21 21 0 0 0-1.24 4.23q0 1.09 1.24-.8 6.42-9.71 12.11-9.71a4.7 4.7 0 0 1 .58 0l.66.11q3.65.66 3.65 4.09a13.31 13.31 0 0 1-1.39 5.33q-.58 1.24-.22 1.24s.8-.92 2.26-2.77a34.48 34.48 0 0 1 4.82-5.07q3.43-2.77 6.2-2.77a6.19 6.19 0 0 1 2.92.73 4 4 0 0 1 2.36 3.9 10.18 10.18 0 0 1-.44 2.77q-.66 2.56-2.85 8.32-1.17 3.14-1.75 4.74t-.66 1.75a5.13 5.13 0 0 0-.22 1.24 1.84 1.84 0 0 0 1 1.68 7.34 7.34 0 0 0 4.23.73A8.74 8.74 0 0 0 291.4 46a11.79 11.79 0 0 0 4-3.43q.36-.44.58.22a6 6 0 0 1 .36 2.85 2.91 2.91 0 0 1-.49 1.56z"/>
  <path class="cls-1" d="M310.74 47.2a12.79 12.79 0 0 1-7.15 3.72 21.36 21.36 0 0 1-3.72.37 12.56 12.56 0 0 1-6.64-1.46q-3.58-2.33-3.21-7.23a46.66 46.66 0 0 1 1.9-7.88q.87-3.06 1.31-4.67t.51-1.75c0-.34-.17-.58-.66-.73s-.82 0-1.28 0l-1.57-.11q-.66-.15-.29-1 .15-.44.33-1t.47-1.39a1.75 1.75 0 0 1 1.53-.73h1.17a5.71 5.71 0 0 0 .73.07h.44q.36 0 .88-.73.88-3.14 1.9-6.53t2.19-7.19a2.15 2.15 0 0 1 1.53-1.09 10.47 10.47 0 0 1 5.47 0q1.09.37.8 2.19-1 3.07-2 6.24t-2 6.53q-.15.66.58.88h2l2.33.11c.29 0 .49.37.58.95a4.63 4.63 0 0 1-.51 2.48 1 1 0 0 1-.95.66q.29-.07-5-.07a.94.94 0 0 0-.87.66q-.8 2.92-1.79 6.28t-2.15 7.15q-.73 2.41.51 3.65a6.31 6.31 0 0 0 4.67 1.75 7.52 7.52 0 0 0 3.5-1.33 17.62 17.62 0 0 0 2.26-1.57 9.67 9.67 0 0 0 1.75-1.86q.36-.44.58.22a6 6 0 0 1 .37 2.85 2.92 2.92 0 0 1-.5 1.56z"/>
  <path class="cls-2" d="M97.84 30.39a12.52 12.52 0 0 0-5.32-3.26L82.81 5.8c-.17-.68-1.08-3-5.42-3.45L64.16 0a1.52 1.52 0 0 0-.53 0 4.48 4.48 0 0 0-2.83 1.92 7.34 7.34 0 0 0-.58 5.88A3 3 0 0 0 63 10.27h.21l14.67-.43 6.72 15.59a63.35 63.35 0 0 0-13.26.37 34.8 34.8 0 0 0-17.89 6.4h-7.22a34.53 34.53 0 0 0-17.75-6.39 64.09 64.09 0 0 0-13.21-.39L22 9.86l14.65.43h.23A3 3 0 0 0 39.6 7.9a7.44 7.44 0 0 0-.54-5.9 4.51 4.51 0 0 0-2.88-2 1.54 1.54 0 0 0-.52 0L22.54 2.33c-4.42.51-5.33 2.78-5.46 3.34L7.35 27c-3.64 1.29-5.16 2.87-5.54 3.33-.14.16-3.29 4-1 11a1.38 1.38 0 0 0-.12.5C.45 46.54 2.63 47.71 4.94 49l.12.05C6.92 51.52 13 58.6 22.61 59.38c.18 0 18.31 2.36 24.38-13.45a31.36 31.36 0 0 1 2.06-5.3l.15-.1a2.58 2.58 0 0 1 1.08 0h.13l.18.14a33.74 33.74 0 0 1 2.08 5.39c4.68 12.16 16.6 13.47 21.5 13.47a21.94 21.94 0 0 0 2.7-.14c9.67-.79 15.73-7.76 17.65-10.34a1.51 1.51 0 0 0 .48-.15c2.16-1.16 4.39-2.36 4.12-7a1.38 1.38 0 0 0-.12-.5l-.13-.29C101 34.3 98 30.54 97.84 30.39zm-23 1.39h1.68a23 23 0 0 1 9.2 1.78 4.41 4.41 0 0 1 2.15 1.67 5 5 0 0 1 .57 1.69c1 5.49-2.76 9.7-6.94 13.43-6 5.37-15.55 1.43-16.22 1.14a13 13 0 0 1-6.92-13.34c.58-3.71 8.61-5.81 13.53-6.27.9-.07 1.86-.11 2.97-.11zm-49.91 0c1.1 0 2 0 2.92.12 4.12.38 12.82 2.39 13.42 6.21.06.34 1.47 8.37-6.82 13-.73.31-10.15 4.19-16.14-1.1-4.15-3.67-7.85-7.8-6.88-13.18a4.86 4.86 0 0 1 .57-1.65 4.43 4.43 0 0 1 2.12-1.63 23 23 0 0 1 9.13-1.75z"/>
</svg>
