<svg xmlns="http://www.w3.org/2000/svg" xmlns:xlink="http://www.w3.org/1999/xlink" viewBox="0 0 512 512">
  <defs>
    <style>
      .cls-2{fill:#fff}.cls-3,.cls-4{fill:none;stroke:#fff;stroke-miterlimit:10}.cls-3{stroke-width:11.34px}.cls-4{stroke-width:2.83px}</style>
      <linearGradient id="gradient" x1="59.4" y1="247.5" x2="452.6" y2="247.5" gradientTransform="matrix(1 0 0 -1 0 514)" gradientUnits="userSpaceOnUse">
        <stop offset="0" stop-color="#edd53b"/>
        <stop offset=".98" stop-color="#eb6357"/>
      </linearGradient>
      <linearGradient id="gradient2" x1="184.5" y1="354.1" x2="230.18" y2="354.1" xlink:href="#gradient"/>
    </defs>
    <path fill="url(#gradient)" d="M452.6 215.5l-48.1-64.6-37.7-50.6-82-8.7-28.8-3-12.4 1.3-98.4 10.4-85.8 115.2L256 444.4l196.6-228.9z"/>
    <path class="cls-2" transform="rotate(-56.64 217.104 166.312)" d="M211.11 66.32h12v199.99h-12z"/>
    <path class="cls-2" d="M201.37 182.8h12v99.7h-12z"/>
    <circle class="cls-3" cx="207.3" cy="305.3" r="22.8"/>
    <circle class="cls-3" cx="312.8" cy="236.8" r="22.8"/>
    <path class="cls-4" d="M145.2 100.3L256 88.6l110.8 11.7 85.8 115.2L256 444.4 59.4 215.5z"/>
    <path class="cls-4" d="M139 215.48l117 228.9-196.6-228.9H139zM373 215.48l-117 228.9 196.6-228.9H373z"/>
    <path class="cls-4" d="M139 215.48h234l-117 228.9-117-228.9z"/>
    <path class="cls-4" d="M256 88.6l-110.8 11.7-6.2 115.2L256 88.6zM256 88.6l110.8 11.7 6.2 115.2L256 88.6z"/>
    <path class="cls-4" d="M452.6 215.5l-85.8-115.2 6.2 115.2h79.6zM59.4 215.5l85.8-115.2-6.2 115.2H59.4zM256 88.6L139 215.5h234L256 88.6z"/>
    <circle cx="207.3" cy="159.9" r="22.8" fill="url(#gradient2)" stroke-width="11.34" stroke="#fff" stroke-miterlimit="10"/>
  </svg>
